{
  "accessors": [
    {
      "bufferView": 2,
      "componentType": 5126,
      "count": 713,
      "max": [
        0.953763484954834,
        1.0310078859329224,
        0.943040668964386
      ],
      "min": [
        -0.932632565498352,
        -0.5776039361953735,
        -0.9293900728225708
      ],
      "type": "VEC3"
    },
    {
      "bufferView": 2,
      "byteOffset": 8556,
      "componentType": 5126,
      "count": 713,
      "max": [
        0.9929273724555969,
        0.9996015429496765,
        0.9907559752464294
      ],
      "min": [
        -0.9981415271759033,
        -0.9999943375587463,
        -0.9977420568466187
      ],
      "type": "VEC3"
    },
    {
      "bufferView": 3,
      "componentType": 5126,
      "count": 713,
      "max": [
        0.9945372343063354,
        0.9996979236602783,
        0.9958095550537109,
        1.0
      ],
      "min": [
        -0.9994239211082458,
        -0.9993497729301453,
        -0.9999184608459473,
        -1.0
      ],
      "type": "VEC4"
    },
    {
      "bufferView": 1,
      "componentType": 5126,
      "count": 713,
      "max": [
        0.9997677803039551,
        0.9941088557243347
      ],
      "min": [
        0.00033799311495386064,
        0.0006131926202215254
      ],
      "type": "VEC2"
    },
    {
      "bufferView": 1,
      "byteOffset": 5704,
      "componentType": 5126,
      "count": 713,
      "max": [
        0.9997677803039551,
        0.9941088557243347
      ],
      "min": [
        0.00033799311495386064,
        0.0006131926202215254
      ],
      "type": "VEC2"
    },
    {
      "bufferView": 1,
      "byteOffset": 11408,
      "componentType": 5126,
      "count": 713,
      "max": [
        0.9997677803039551,
        0.9941088557243347
      ],
      "min": [
        0.00033799311495386064,
        0.0006131926202215254
      ],
      "type": "VEC2"
    },
    {
      "bufferView": 0,
      "componentType": 5125,
      "count": 3498,
      "type": "SCALAR"
    }
  ],
  "asset": {
    "extras": {
      "author": "Jawlex (https://sketchfab.com/jawlex3d)",
      "license": "SKETCHFAB Standard (https://sketchfab.com/licenses)",
      "source": "https://sketchfab.com/3d-models/low-poly-pumpkin-f908eaecdfa24ebbb3c02ff1712805c5",
      "title": "Low-Poly Pumpkin"
    },
    "generator": "Sketchfab-16.35.0",
    "version": "2.0"
  },
  "bufferViews": [
    {
      "buffer": 0,
      "byteLength": 13992,
      "name": "floatBufferViews",
      "target": 34963
    },
    {
      "buffer": 0,
      "byteLength": 17112,
      "byteOffset": 13992,
      "byteStride": 8,
      "name": "floatBufferViews",
      "target": 34962
    },
    {
      "buffer": 0,
      "byteLength": 17112,
      "byteOffset": 31104,
      "byteStride": 12,
      "name": "floatBufferViews",
      "target": 34962
    },
    {
      "buffer": 0,
      "byteLength": 11408,
      "byteOffset": 48216,
      "byteStride": 16,
      "name": "floatBufferViews",
      "target": 34962
    }
  ],
  "buffers": [
    {
      "byteLength": 59624,
      "uri": "scene.bin"
    }
  ],
  "images": [
    {
      "uri": "textures/Pumpkin_baseColor.png"
    },
    {
      "uri": "textures/Pumpkin_metallicRoughness.png"
    },
    {
      "uri": "textures/Pumpkin_normal.png"
    }
  ],
  "materials": [
    {
      "doubleSided": true,
      "name": "Pumpkin",
      "normalTexture": {
        "index": 2
      },
      "pbrMetallicRoughness": {
        "baseColorTexture": {
          "index": 0
        },
        "metallicRoughnessTexture": {
          "index": 1
        }
      }
    }
  ],
  "meshes": [
    {
      "name": "Pumpkin_Base_LP_Pumpkin_0",
      "primitives": [
        {
          "attributes": {
            "NORMAL": 1,
            "POSITION": 0,
            "TANGENT": 2,
            "TEXCOORD_0": 3,
            "TEXCOORD_1": 4,
            "TEXCOORD_2": 5
          },
          "indices": 6,
          "material": 0,
          "mode": 4
        }
      ]
    }
  ],
  "nodes": [
    {
      "children": [
        1
      ],
      "matrix": [
        1.0,
        0.0,
        0.0,
        0.0,
        0.0,
        2.220446049250313e-16,
        -1.0,
        0.0,
        0.0,
        1.0,
        2.220446049250313e-16,
        0.0,
        0.0,
        0.0,
        0.0,
        1.0
      ],
      "name": "Sketchfab_model"
    },
    {
      "children": [
        2
      ],
      "matrix": [
        0.009999999776482582,
        0.0,
        0.0,
        0.0,
        0.0,
        0.0,
        0.009999999776482582,
        0.0,
        0.0,
        -0.009999999776482582,
        0.0,
        0.0,
        0.0,
        0.0,
        0.0,
        1.0
      ],
      "name": "2039ec157bec4b4f8be6d984f8a691b0.fbx"
    },
    {
      "children": [
        3
      ],
      "name": "RootNode"
    },
    {
      "children": [
        4
      ],
      "matrix": [
        1.0,
        0.0,
        0.0,
        0.0,
        0.0,
        0.9999999999999971,
        -7.549789415861594e-08,
        0.0,
        0.0,
        7.549789415861594e-08,
        0.9999999999999971,
        0.0,
        0.0,
        0.0,
        2.139127731323242,
        1.0
      ],
      "name": "Pumpkin_Base_LP"
    },
    {
      "mesh": 0,
      "name": "Pumpkin_Base_LP_Pumpkin_0"
    }
  ],
  "samplers": [
    {
      "magFilter": 9729,
      "minFilter": 9987,
      "wrapS": 10497,
      "wrapT": 10497
    }
  ],
  "scene": 0,
  "scenes": [
    {
      "name": "Sketchfab_Scene",
      "nodes": [
        0
      ]
    }
  ],
  "textures": [
    {
      "sampler": 0,
      "source": 0
    },
    {
      "sampler": 0,
      "source": 1
    },
    {
      "sampler": 0,
      "source": 2
    }
  ]
}
