{
  "accessors": [
    {
      "bufferView": 2,
      "componentType": 5126,
      "count": 2966,
      "max": [
        17.475927352905273,
        13.828652381896973,
        177.44691467285156
      ],
      "min": [
        -16.860763549804688,
        -12.024478912353516,
        142.28953552246094
      ],
      "type": "VEC3"
    },
    {
      "bufferView": 2,
      "byteOffset": 35592,
      "componentType": 5126,
      "count": 2966,
      "max": [
        0.9993391036987305,
        0.9998819828033447,
        0.999937891960144
      ],
      "min": [
        -0.9999006390571594,
        -0.9909667372703552,
        -0.8676531314849854
      ],
      "type": "VEC3"
    },
    {
      "bufferView": 3,
      "componentType": 5126,
      "count": 2966,
      "max": [
        0.9940618276596069,
        0.9998568892478943,
        0.9847583770751953,
        1.0
      ],
      "min": [
        -0.9999815821647644,
        -0.9994292855262756,
        -0.9900552034378052,
        -1.0
      ],
      "type": "VEC4"
    },
    {
      "bufferView": 1,
      "componentType": 5126,
      "count": 2966,
      "max": [
        0.9921000003814697,
        0.9981150031089783
      ],
      "min": [
        0.007499999832361937,
        0.0019990000873804092
      ],
      "type": "VEC2"
    },
    {
      "bufferView": 0,
      "componentType": 5125,
      "count": 11028,
      "type": "SCALAR"
    },
    {
      "bufferView": 2,
      "byteOffset": 71184,
      "componentType": 5126,
      "count": 1647,
      "max": [
        72.77863311767578,
        26.363441467285156,
        150.24319458007813
      ],
      "min": [
        -70.7070541381836,
        -25.88990020751953,
        15.82220458984375
      ],
      "type": "VEC3"
    },
    {
      "bufferView": 2,
      "byteOffset": 90948,
      "componentType": 5126,
      "count": 1647,
      "max": [
        0.9982079863548279,
        0.9996201395988464,
        0.9994502663612366
      ],
      "min": [
        -0.9990073442459106,
        -0.9999068975448608,
        -0.9995750188827515
      ],
      "type": "VEC3"
    },
    {
      "bufferView": 3,
      "byteOffset": 47456,
      "componentType": 5126,
      "count": 1647,
      "max": [
        0.9999986886978149,
        0.999009370803833,
        0.999992847442627,
        1.0
      ],
      "min": [
        -0.9999421834945679,
        -0.9995092749595642,
        -0.9957074522972107,
        1.0
      ],
      "type": "VEC4"
    },
    {
      "bufferView": 1,
      "byteOffset": 23728,
      "componentType": 5126,
      "count": 1647,
      "max": [
        0.9946669936180115,
        0.9854469895362854
      ],
      "min": [
        0.006858000066131353,
        0.007091000210493803
      ],
      "type": "VEC2"
    },
    {
      "bufferView": 0,
      "byteOffset": 44112,
      "componentType": 5125,
      "count": 8328,
      "type": "SCALAR"
    },
    {
      "bufferView": 2,
      "byteOffset": 110712,
      "componentType": 5126,
      "count": 9401,
      "max": [
        91.07268524169922,
        12.684746742248535,
        175.61793518066406
      ],
      "min": [
        -91.05126953125,
        -13.320069313049316,
        0.0003020000003743917
      ],
      "type": "VEC3"
    },
    {
      "bufferView": 2,
      "byteOffset": 223524,
      "componentType": 5126,
      "count": 9401,
      "max": [
        0.9999632239341736,
        0.999572217464447,
        0.9999901056289673
      ],
      "min": [
        -0.9999656677246094,
        -0.999732255935669,
        -0.9999951124191284
      ],
      "type": "VEC3"
    },
    {
      "bufferView": 3,
      "byteOffset": 73808,
      "componentType": 5126,
      "count": 9401,
      "max": [
        1.0,
        0.9999827742576599,
        0.999972403049469,
        1.0
      ],
      "min": [
        -0.999992311000824,
        -0.9999900460243225,
        -0.9996898174285889,
        -1.0
      ],
      "type": "VEC4"
    },
    {
      "bufferView": 1,
      "byteOffset": 36904,
      "componentType": 5126,
      "count": 9401,
      "max": [
        0.9924700260162354,
        0.9982979893684387
      ],
      "min": [
        0.004989999812096357,
        0.008089999668300152
      ],
      "type": "VEC2"
    },
    {
      "bufferView": 0,
      "byteOffset": 77424,
      "componentType": 5125,
      "count": 49002,
      "type": "SCALAR"
    }
  ],
  "asset": {
    "extras": {
      "author": "John Doe (https://sketchfab.com/JonnyDoe)",
      "license": "SKETCHFAB Standard (https://sketchfab.com/licenses)",
      "source": "https://sketchfab.com/3d-models/ghostly-woman-aadad446802e4f35899730d72c2f968d",
      "title": "Ghostly Woman"
    },
    "generator": "Sketchfab-16.8.0",
    "version": "2.0"
  },
  "bufferViews": [
    {
      "buffer": 0,
      "byteLength": 273432,
      "name": "floatBufferViews",
      "target": 34963
    },
    {
      "buffer": 0,
      "byteLength": 112112,
      "byteOffset": 273432,
      "byteStride": 8,
      "name": "floatBufferViews",
      "target": 34962
    },
    {
      "buffer": 0,
      "byteLength": 336336,
      "byteOffset": 385544,
      "byteStride": 12,
      "name": "floatBufferViews",
      "target": 34962
    },
    {
      "buffer": 0,
      "byteLength": 224224,
      "byteOffset": 721880,
      "byteStride": 16,
      "name": "floatBufferViews",
      "target": 34962
    }
  ],
  "buffers": [
    {
      "byteLength": 946104,
      "uri": "scene.bin"
    }
  ],
  "extensionsRequired": [
    "KHR_materials_pbrSpecularGlossiness"
  ],
  "extensionsUsed": [
    "KHR_materials_pbrSpecularGlossiness"
  ],
  "images": [
    {
      "uri": "textures/Body_diffuse.png"
    },
    {
      "uri": "textures/Body_specularGlossiness.png"
    },
    {
      "uri": "textures/Body_normal.png"
    },
    {
      "uri": "textures/Hair_diffuse.png"
    },
    {
      "uri": "textures/Hair_specularGlossiness.png"
    },
    {
      "uri": "textures/Hair_normal.png"
    },
    {
      "uri": "textures/material_diffuse.png"
    },
    {
      "uri": "textures/material_specularGlossiness.png"
    },
    {
      "uri": "textures/material_normal.png"
    }
  ],
  "materials": [
    {
      "doubleSided": true,
      "extensions": {
        "KHR_materials_pbrSpecularGlossiness": {
          "diffuseFactor": [
            1.0,
            1.0,
            1.0,
            1.0
          ],
          "diffuseTexture": {
            "index": 0
          },
          "glossinessFactor": 0.0,
          "specularFactor": [
            0.05,
            0.05,
            0.05
          ],
          "specularGlossinessTexture": {
            "index": 1
          }
        }
      },
      "name": "Body",
      "normalTexture": {
        "index": 2
      }
    },
    {
      "doubleSided": true,
      "extensions": {
        "KHR_materials_pbrSpecularGlossiness": {
          "diffuseFactor": [
            1.0,
            1.0,
            1.0,
            1.0
          ],
          "diffuseTexture": {
            "index": 3
          },
          "glossinessFactor": 0.0,
          "specularFactor": [
            0.05,
            0.05,
            0.05
          ],
          "specularGlossinessTexture": {
            "index": 4
          }
        }
      },
      "name": "Hair",
      "normalTexture": {
        "index": 5
      }
    },
    {
      "doubleSided": true,
      "extensions": {
        "KHR_materials_pbrSpecularGlossiness": {
          "diffuseFactor": [
            1.0,
            1.0,
            1.0,
            1.0
          ],
          "diffuseTexture": {
            "index": 6
          },
          "glossinessFactor": 0.0,
          "specularFactor": [
            0.05,
            0.05,
            0.05
          ],
          "specularGlossinessTexture": {
            "index": 7
          }
        }
      },
      "name": "material",
      "normalTexture": {
        "index": 8
      }
    }
  ],
  "meshes": [
    {
      "name": "Object_0",
      "primitives": [
        {
          "attributes": {
            "NORMAL": 1,
            "POSITION": 0,
            "TANGENT": 2,
            "TEXCOORD_0": 3
          },
          "indices": 4,
          "material": 1,
          "mode": 4
        }
      ]
    },
    {
      "name": "Object_1",
      "primitives": [
        {
          "attributes": {
            "NORMAL": 6,
            "POSITION": 5,
            "TANGENT": 7,
            "TEXCOORD_0": 8
          },
          "indices": 9,
          "material": 2,
          "mode": 4
        }
      ]
    },
    {
      "name": "Object_2",
      "primitives": [
        {
          "attributes": {
            "NORMAL": 11,
            "POSITION": 10,
            "TANGENT": 12,
            "TEXCOORD_0": 13
          },
          "indices": 14,
          "material": 0,
          "mode": 4
        }
      ]
    }
  ],
  "nodes": [
    {
      "children": [
        1
      ],
      "matrix": [
        1.0,
        0.0,
        0.0,
        0.0,
        0.0,
        2.220446049250313e-16,
        -1.0,
        0.0,
        0.0,
        1.0,
        2.220446049250313e-16,
        0.0,
        0.0,
        0.0,
        0.0,
        1.0
      ],
      "name": "Sketchfab_model"
    },
    {
      "children": [
        2,
        3,
        4
      ],
      "name": "Womann.obj.cleaner.materialmerger.gles"
    },
    {
      "mesh": 0,
      "name": "Object_2"
    },
    {
      "mesh": 1,
      "name": "Object_3"
    },
    {
      "mesh": 2,
      "name": "Object_4"
    }
  ],
  "samplers": [
    {
      "magFilter": 9729,
      "minFilter": 9987,
      "wrapS": 10497,
      "wrapT": 10497
    }
  ],
  "scene": 0,
  "scenes": [
    {
      "name": "Sketchfab_Scene",
      "nodes": [
        0
      ]
    }
  ],
  "textures": [
    {
      "sampler": 0,
      "source": 0
    },
    {
      "sampler": 0,
      "source": 1
    },
    {
      "sampler": 0,
      "source": 2
    },
    {
      "sampler": 0,
      "source": 3
    },
    {
      "sampler": 0,
      "source": 4
    },
    {
      "sampler": 0,
      "source": 5
    },
    {
      "sampler": 0,
      "source": 6
    },
    {
      "sampler": 0,
      "source": 7
    },
    {
      "sampler": 0,
      "source": 8
    }
  ]
}
